<svg width="52" height="57" viewBox="0 0 52 57" fill="none" xmlns="http://www.w3.org/2000/svg">
<g filter="url(#filter0_d_482_1528)">
<path d="M4.25282 27.0167C4.468 26.7483 4.78909 26.5917 5.12594 26.5917H9.40814C10.4649 23.7424 11.8416 20.9508 13.4064 19.897C18.8198 16.2565 33.1783 16.2565 38.5916 19.897C40.1575 20.9519 41.5286 23.747 42.591 26.5917H46.8732C47.2134 26.5917 47.5334 26.7483 47.7463 27.0167C47.9604 27.2839 48.046 27.6374 47.9761 27.9772L47.3419 31.119C47.2337 31.6545 46.7718 32.0368 46.2389 32.0368H44.9704C46.195 33.4811 46.7887 35.2996 46.7966 37.1192C46.8045 39.3673 45.9697 41.3989 44.4431 42.8362C44.4262 42.8511 44.4093 42.8615 44.3936 42.8765V47.2724C44.3936 48.2249 43.6365 49 42.7037 49H38.7538C37.821 49 37.0639 48.2249 37.0639 47.2724V45.5058H14.9364V47.2724C14.9364 48.2249 14.1793 49 13.2465 49H9.29661C8.36604 49 7.60671 48.2249 7.60671 47.2724V42.9629C5.98666 41.4461 5.21269 39.3592 5.20255 37.2758C5.19579 35.394 5.81654 33.5087 7.11326 32.0345H5.76021C5.22508 32.0345 4.76317 31.6522 4.65727 31.1155L4.02187 27.9749C3.95653 27.6374 4.03877 27.2862 4.25282 27.0167ZM36.7361 22.7819C32.4212 19.8785 19.5791 19.8785 15.2665 22.7819C14.4283 23.344 13.3501 25.6162 12.3621 28.3987H39.6382C38.6524 25.6174 37.5743 23.3463 36.7361 22.7819ZM41.79 37.5523C41.79 35.675 40.3006 34.1548 38.4654 34.1548C36.6279 34.1548 35.1408 35.675 35.1408 37.5523C35.1408 39.4295 36.6279 40.9509 38.4654 40.9509C40.3006 40.9509 41.79 39.4295 41.79 37.5523ZM13.4909 40.9509C15.3262 40.9509 16.8155 39.4295 16.8155 37.5523C16.8155 35.675 15.3262 34.1548 13.4909 34.1548C11.6535 34.1548 10.1663 35.675 10.1663 37.5523C10.1663 39.4295 11.6557 40.9509 13.4909 40.9509Z" fill="#1E1B1B"/>
<mask id="mask0_482_1528" style="mask-type:alpha" maskUnits="userSpaceOnUse" x="10" y="0" width="25" height="28">
<path d="M30.5548 14.4818C30.5055 15.0402 30.198 15.5656 29.6835 15.8602C29.2563 16.1048 28.8161 16.2847 28.3664 16.4064C28.6198 17.2806 29.0853 18.5457 29.914 19.9007C30.7012 21.1883 30.7105 22.7423 29.9388 24.1645C28.8019 26.2606 26.2915 27.6691 23.691 27.6691C21.9051 27.6691 20.3173 26.8283 19.2205 25.3014C17.653 23.1184 17.3056 19.8968 18.2919 16.6853C19.2062 13.7082 17.9834 12.12 17.1744 11.4373C16.5149 12.0871 15.6203 12.4878 14.6316 12.4878C12.6057 12.4878 10.9622 10.8082 10.9622 8.73616C10.9622 6.66411 12.6057 4.98501 14.6316 4.98501C16.6585 4.98501 18.301 6.66459 18.301 8.73616C18.301 9.0279 18.2655 9.31025 18.204 9.58283C19.7317 10.7252 21.4954 13.2966 20.2611 17.3169C19.4828 19.852 19.7216 22.4327 20.8852 24.0525C21.3785 24.74 22.2664 25.5593 23.6916 25.5593C25.5355 25.5593 27.3624 24.5648 28.134 23.1416C28.4186 22.6166 28.6543 21.8214 28.1635 21.0185C27.0674 19.2249 26.5188 17.5512 26.2587 16.5282C25.6495 16.4344 25.0547 16.2335 24.4825 15.9212C23.9725 15.6428 23.6596 15.1389 23.5907 14.5943C21.1663 12.3538 20.0469 8.31686 19.9825 8.0806C19.8518 7.59595 20.0752 7.0984 20.4917 6.87154C20.1569 3.84091 21.2541 2.31345 21.9162 1.69128C21.8657 1.40011 21.9797 1.08865 22.2299 0.921722L23.4465 0.108913C23.7642 -0.103252 24.1637 0.00382639 24.3379 0.349531L24.9176 1.49477C25.0922 1.84057 24.9383 2.20932 24.5735 2.31933L23.1981 2.7338C22.8494 2.83889 22.4316 2.66855 22.2341 2.35613C21.686 2.94644 20.8967 4.26069 21.1686 6.76778C21.5424 6.84052 21.8628 7.11889 21.9713 7.51913C22.3018 8.7317 23.2563 11.2363 24.6735 12.7382C25.1246 12.56 25.6432 12.5688 26.1032 12.8192C26.4028 12.9828 26.6957 13.0652 26.9964 13.0716H27.0584C27.3753 13.0647 27.6847 12.9734 28.0015 12.7922C28.4502 12.5349 28.9612 12.5123 29.4118 12.6748C30.7973 11.1668 31.7315 8.7152 32.0565 7.51932C32.1653 7.12012 32.4869 6.84109 32.8594 6.76844C33.1318 4.26135 32.3428 2.9471 31.7939 2.3568C31.5963 2.66912 31.179 2.83955 30.8302 2.73437L29.4548 2.3199C29.0906 2.20989 28.9357 1.84057 29.1108 1.49533L29.69 0.350005C29.8646 0.00420578 30.2641 -0.102778 30.5814 0.109387L31.7992 0.922765C32.0492 1.08969 32.1629 1.40106 32.1127 1.69232C32.7737 2.31459 33.8719 3.84138 33.5369 6.87249C33.9537 7.09945 34.1763 7.5969 34.0462 8.08212C33.9829 8.31344 32.8972 12.2217 30.5548 14.4818ZM14.6316 7.27083C13.8409 7.27083 13.1986 7.92648 13.1986 8.73635C13.1986 9.54565 13.8409 10.2018 14.6316 10.2018C15.4233 10.2018 16.0652 9.54565 16.0652 8.73635C16.0652 7.92639 15.4238 7.27083 14.6316 7.27083Z" fill="black"/>
</mask>
<g mask="url(#mask0_482_1528)">
<path d="M55.5149 -2.65564H22.4859L19.0996 6.21222L22.4859 19.5377H55.5149V-2.65564Z" fill="#1E1B1B"/>
</g>
</g>
<defs>
<filter id="filter0_d_482_1528" x="0" y="0" width="52" height="57" filterUnits="userSpaceOnUse" color-interpolation-filters="sRGB">
<feFlood flood-opacity="0" result="BackgroundImageFix"/>
<feColorMatrix in="SourceAlpha" type="matrix" values="0 0 0 0 0 0 0 0 0 0 0 0 0 0 0 0 0 0 127 0" result="hardAlpha"/>
<feOffset dy="4"/>
<feGaussianBlur stdDeviation="2"/>
<feComposite in2="hardAlpha" operator="out"/>
<feColorMatrix type="matrix" values="0 0 0 0 0 0 0 0 0 0 0 0 0 0 0 0 0 0 0.25 0"/>
<feBlend mode="normal" in2="BackgroundImageFix" result="effect1_dropShadow_482_1528"/>
<feBlend mode="normal" in="SourceGraphic" in2="effect1_dropShadow_482_1528" result="shape"/>
</filter>
</defs>
</svg>
